<?xml version="1.0" standalone="no"?>
<!DOCTYPE svg PUBLIC "-//W3C//DTD SVG 20010904//EN"
 "http://www.w3.org/TR/2001/REC-SVG-20010904/DTD/svg10.dtd">
<svg version="1.0" xmlns="http://www.w3.org/2000/svg"
 width="1000.000000pt" height="1000.000000pt" viewBox="0 0 1000.000000 1000.000000"
 preserveAspectRatio="xMidYMid meet">

<g transform="translate(0.000000,1000.000000) scale(0.100000,-0.100000)"
fill="#000000" stroke="none">
<path d="M4800 9989 c-215 -8 -625 -53 -695 -76 -11 -4 -28 -8 -37 -9 -10 -1
-21 -3 -25 -4 -5 -1 -11 -2 -15 -1 -5 0 -7 -5 -5 -12 1 -6 -4 -11 -10 -10 -7
2 -12 -3 -10 -10 1 -6 -4 -11 -10 -10 -7 2 -12 -3 -10 -10 1 -6 -4 -11 -10
-10 -7 2 -12 -3 -10 -10 1 -6 -4 -11 -10 -10 -7 2 -12 -3 -10 -10 1 -6 -4 -11
-10 -10 -7 2 -12 -3 -10 -10 1 -6 -4 -11 -10 -10 -7 2 -12 -3 -10 -10 1 -6 -4
-11 -10 -10 -7 2 -12 -3 -10 -10 1 -6 -4 -11 -10 -10 -7 2 -12 -3 -10 -10 1
-6 -4 -11 -10 -10 -7 2 -12 -3 -10 -10 1 -6 -4 -11 -10 -10 -7 2 -12 -3 -10
-10 1 -6 -4 -11 -10 -10 -7 2 -12 -3 -10 -10 1 -6 -4 -11 -10 -10 -7 2 -12 -3
-10 -10 1 -6 -4 -11 -10 -10 -7 2 -12 -3 -10 -10 1 -6 -4 -11 -10 -10 -7 2
-12 -3 -10 -10 1 -6 -4 -11 -10 -10 -7 2 -12 -3 -10 -10 1 -6 -4 -11 -10 -10
-7 2 -12 -3 -10 -10 1 -6 -4 -11 -10 -10 -7 2 -12 -3 -10 -10 1 -6 -4 -11 -10
-10 -7 2 -12 -3 -10 -10 1 -6 -4 -11 -10 -10 -7 2 -12 -3 -10 -10 1 -6 -4 -11
-10 -10 -7 2 -12 -3 -10 -10 1 -6 -4 -11 -10 -10 -7 2 -12 -3 -10 -10 1 -6 -4
-11 -10 -10 -7 2 -12 -3 -10 -10 1 -6 -4 -11 -10 -10 -7 2 -12 -3 -10 -10 1
-6 -4 -11 -10 -10 -7 2 -12 -3 -10 -10 1 -6 -4 -11 -10 -10 -7 2 -12 -3 -10
-10 1 -6 -4 -11 -10 -10 -7 2 -12 -3 -10 -10 1 -6 -4 -11 -10 -10 -7 2 -12 -3
-10 -10 1 -6 -4 -11 -10 -10 -7 2 -12 -3 -10 -10 1 -6 -4 -11 -10 -10 -7 2
-12 -3 -10 -10 1 -6 -4 -11 -10 -10 -7 2 -12 -3 -10 -10 1 -6 -4 -11 -10 -10
-7 2 -12 -3 -10 -10 1 -6 -4 -11 -10 -10 -7 2 -12 -3 -10 -10 1 -6 -4 -11 -10
-10 -7 2 -12 -3 -10 -10 1 -6 -4 -11 -11 -9 -6 1 -11 -4 -10 -10 2 -7 -3 -12
-10 -10 -6 1 -11 -4 -10 -10 2 -7 -3 -12 -10 -10 -6 1 -11 -4 -10 -10 2 -7 -3
-12 -10 -10 -6 1 -11 -4 -10 -10 2 -7 -3 -12 -10 -10 -6 1 -11 -4 -10 -10 2
-7 -3 -12 -10 -10 -6 1 -11 -4 -10 -10 2 -7 -3 -12 -10 -10 -6 1 -11 -4 -10
-10 2 -7 -3 -12 -10 -10 -6 1 -11 -4 -10 -10 2 -7 -3 -12 -10 -10 -6 1 -11 -4
-10 -10 2 -7 -3 -12 -10 -10 -6 1 -11 -4 -10 -10 2 -7 -3 -12 -10 -10 -6 1
-11 -4 -10 -10 2 -7 -3 -12 -10 -10 -6 1 -11 -4 -10 -10 2 -7 -3 -12 -10 -10
-6 1 -11 -4 -10 -10 2 -7 -3 -12 -10 -10 -6 1 -11 -4 -10 -10 2 -7 -3 -12 -10
-10 -6 1 -11 -4 -10 -10 2 -7 -3 -12 -10 -10 -6 1 -11 -4 -10 -10 2 -7 -3 -12
-10 -10 -6 1 -11 -4 -10 -10 2 -7 -3 -12 -10 -10 -6 1 -11 -4 -10 -10 2 -7 -3
-12 -10 -10 -6 1 -11 -4 -10 -10 2 -7 -3 -12 -10 -10 -6 1 -11 -4 -10 -10 2
-7 -3 -12 -10 -10 -6 1 -11 -4 -10 -10 2 -7 -3 -12 -10 -10 -6 1 -11 -4 -10
-10 2 -7 -3 -12 -10 -10 -6 1 -11 -4 -10 -10 2 -7 -3 -12 -10 -10 -6 1 -11 -4
-10 -10 2 -7 -3 -12 -10 -10 -6 1 -11 -4 -10 -10 2 -7 -3 -12 -10 -10 -6 1
-11 -4 -10 -10 2 -7 -3 -12 -10 -10 -6 1 -11 -4 -10 -10 2 -7 -3 -12 -10 -10
-6 1 -11 -4 -10 -10 2 -7 -3 -12 -10 -10 -6 1 -11 -4 -10 -10 2 -7 -3 -12 -10
-10 -6 1 -11 -4 -10 -10 2 -7 -3 -12 -10 -10 -6 1 -11 -4 -10 -10 2 -7 -3 -12
-10 -10 -6 1 -11 -4 -10 -10 2 -7 -2 -12 -8 -11 -7 1 -10 -10 -9 -28 2 -24 0
-27 -11 -18 -10 8 -12 6 -9 -11 3 -18 2 -20 -10 -10 -12 10 -13 8 -10 -10 3
-18 2 -20 -10 -10 -12 10 -13 8 -10 -10 3 -18 2 -20 -10 -10 -12 10 -13 8 -10
-10 3 -18 2 -20 -10 -10 -12 10 -13 8 -10 -10 3 -18 2 -20 -10 -10 -12 10 -13
8 -10 -10 3 -18 2 -20 -10 -10 -12 10 -13 8 -10 -10 3 -18 2 -20 -10 -10 -12
10 -13 8 -10 -10 3 -18 2 -20 -10 -10 -12 10 -13 8 -10 -10 3 -18 2 -20 -10
-10 -12 10 -13 8 -10 -10 3 -17 1 -19 -9 -11 -11 9 -13 6 -11 -18 1 -18 -2
-29 -9 -28 -6 1 -10 -4 -8 -11 1 -6 -4 -11 -10 -10 -7 2 -12 -3 -10 -10 1 -6
-4 -11 -10 -10 -7 2 -12 -3 -10 -10 1 -6 -4 -11 -10 -10 -7 2 -12 -3 -10 -10
1 -6 -4 -11 -10 -10 -7 2 -12 -3 -10 -10 1 -6 -4 -11 -10 -10 -7 2 -12 -3 -10
-10 1 -6 -4 -11 -10 -10 -7 2 -12 -3 -10 -10 1 -6 -4 -11 -10 -10 -7 2 -12 -3
-10 -10 1 -6 -4 -11 -10 -10 -7 2 -12 -3 -10 -10 1 -6 -4 -11 -10 -10 -7 2
-12 -3 -10 -10 1 -6 -4 -11 -10 -10 -7 2 -12 -3 -10 -9 1 -7 -4 -12 -10 -10
-7 1 -12 -4 -11 -10 2 -7 -3 -12 -10 -10 -6 1 -11 -4 -10 -10 2 -7 -3 -12 -10
-10 -6 1 -11 -4 -10 -10 2 -7 -3 -12 -10 -10 -6 1 -11 -4 -10 -10 2 -7 -3 -12
-10 -10 -6 1 -11 -4 -10 -10 2 -7 -3 -12 -10 -10 -6 1 -11 -4 -10 -10 2 -7 -3
-12 -10 -10 -6 1 -11 -4 -10 -10 2 -7 -3 -12 -10 -10 -6 1 -11 -4 -10 -10 2
-7 -3 -12 -10 -10 -6 1 -11 -4 -10 -10 2 -7 -3 -12 -10 -10 -6 1 -11 -4 -10
-10 2 -7 -3 -12 -10 -10 -6 1 -11 -4 -10 -10 2 -7 -3 -12 -10 -10 -6 1 -11 -4
-10 -10 2 -7 -3 -12 -10 -10 -6 1 -11 -4 -10 -10 2 -7 -3 -12 -10 -10 -6 1
-11 -4 -10 -10 2 -7 -3 -12 -10 -10 -6 1 -11 -4 -10 -10 2 -7 -3 -12 -10 -10
-6 1 -11 -4 -10 -10 2 -7 -3 -12 -10 -10 -6 1 -11 -4 -10 -10 2 -7 -3 -12 -10
-10 -6 1 -11 -4 -10 -10 2 -7 -3 -12 -10 -10 -6 1 -11 -4 -10 -10 2 -7 -3 -12
-10 -10 -6 1 -11 -4 -10 -10 2 -7 -3 -12 -10 -10 -6 1 -11 -4 -10 -10 2 -7 -3
-12 -10 -10 -6 1 -11 -4 -10 -10 2 -7 -3 -12 -10 -10 -6 1 -11 -4 -10 -10 2
-7 -3 -12 -10 -10 -6 1 -11 -4 -10 -10 2 -7 -3 -12 -10 -10 -6 1 -11 -4 -10
-10 2 -7 -3 -12 -10 -10 -6 1 -11 -4 -10 -10 2 -7 -3 -12 -10 -10 -6 1 -11 -4
-10 -10 2 -7 -3 -12 -10 -10 -6 1 -11 -4 -10 -10 2 -7 -3 -12 -10 -10 -6 1
-11 -4 -10 -10 2 -7 -3 -12 -10 -10 -6 1 -11 -4 -10 -10 2 -7 -3 -12 -10 -10
-6 1 -11 -4 -10 -10 2 -7 -3 -12 -10 -10 -6 1 -11 -4 -10 -10 2 -7 -3 -12 -10
-10 -6 1 -11 -4 -10 -10 2 -7 -3 -12 -10 -10 -6 1 -11 -4 -10 -10 2 -7 -3 -12
-10 -10 -6 1 -11 -4 -10 -10 2 -7 -3 -12 -10 -10 -6 1 -11 -4 -10 -10 2 -7 -3
-12 -10 -10 -6 1 -11 -4 -10 -10 2 -7 -3 -12 -10 -10 -6 1 -11 -4 -10 -10 2
-7 -3 -12 -10 -10 -6 1 -11 -4 -10 -10 2 -7 -3 -12 -10 -10 -6 1 -11 -4 -10
-10 2 -7 -3 -12 -10 -10 -6 1 -11 -4 -10 -10 2 -7 -3 -12 -10 -10 -6 1 -11 -4
-10 -10 2 -7 -3 -12 -10 -10 -6 1 -11 -4 -10 -10 2 -7 -3 -12 -10 -10 -6 1
-11 -4 -10 -10 2 -7 -3 -12 -10 -10 -6 1 -11 -4 -10 -10 2 -7 -3 -12 -10 -10
-6 1 -11 -4 -10 -10 2 -7 -3 -12 -10 -10 -6 1 -11 -4 -10 -10 2 -7 -3 -12 -10
-10 -6 1 -11 -4 -10 -10 2 -7 -3 -12 -10 -10 -6 1 -11 -4 -10 -10 2 -7 -3 -12
-10 -10 -6 1 -11 -4 -10 -10 2 -7 -3 -12 -10 -10 -6 1 -11 -4 -10 -10 2 -7 -3
-12 -10 -10 -6 1 -11 -4 -10 -10 2 -7 -3 -12 -10 -10 -6 1 -11 -4 -10 -10 2
-7 -3 -12 -10 -10 -6 1 -11 -4 -10 -10 2 -7 -3 -12 -10 -10 -6 1 -11 -4 -10
-10 2 -7 -3 -12 -10 -10 -6 1 -11 -4 -10 -10 2 -7 -3 -12 -10 -10 -6 1 -11 -4
-10 -10 2 -7 -3 -12 -10 -10 -6 1 -11 -4 -10 -10 2 -7 -3 -12 -10 -10 -6 1
-11 -4 -10 -10 2 -7 -3 -12 -10 -10 -6 1 -11 -4 -10 -10 2 -7 -3 -12 -10 -10
-6 1 -11 -4 -10 -10 2 -7 -3 -12 -10 -10 -6 1 -11 -4 -10 -10 2 -7 -3 -12 -10
-10 -6 1 -11 -4 -10 -10 2 -7 -3 -12 -10 -10 -6 1 -11 -4 -10 -10 2 -7 -3 -12
-10 -10 -6 1 -11 -4 -10 -10 2 -7 -3 -12 -10 -10 -6 1 -11 -4 -10 -10 2 -7 -3
-12 -10 -10 -6 1 -11 -4 -10 -10 2 -7 -3 -12 -10 -10 -6 1 -11 -4 -10 -10 2
-7 -3 -12 -10 -10 -6 1 -11 -4 -10 -10 2 -7 -3 -12 -10 -10 -6 1 -11 -4 -10
-10 2 -7 -3 -12 -10 -10 -6 1 -11 -4 -10 -10 2 -7 -3 -12 -10 -10 -6 1 -11 -4
-10 -10 2 -7 -3 -12 -10 -10 -6 1 -11 -4 -10 -10 2 -7 -3 -12 -10 -10 -6 1
-11 -4 -10 -10 2 -7 -3 -12 -10 -10 -6 1 -11 -4 -10 -10 2 -7 -3 -12 -10 -10
-6 1 -11 -4 -10 -10 2 -7 -3 -12 -10 -10 -6 1 -11 -4 -10 -10 2 -7 -3 -12 -10
-10 -6 1 -11 -4 -9 -11 1 -8 -2 -11 -9 -6 -7 4 336 354 886 904 550 550 893
900 886 904 -7 5 -10 2 -9 -6 2 -7 -3 -12 -10 -10 -6 1 -11 -4 -10 -10 2 -7
-3 -12 -10 -10 -6 1 -11 -4 -10 -10 2 -7 -3 -12 -10 -10 -6 1 -11 -4 -10 -10
2 -7 -3 -12 -10 -10 -6 1 -11 -4 -10 -10 2 -7 -3 -12 -10 -10 -6 1 -11 -4 -10
-10 2 -7 -3 -12 -10 -10 -6 1 -11 -4 -10 -10 2 -7 -3 -12 -10 -10 -6 1 -11 -4
-10 -10 2 -7 -3 -12 -10 -10 -6 1 -11 -4 -10 -10 2 -7 -3 -12 -10 -10 -6 1
-11 -4 -10 -10 2 -7 -3 -12 -10 -10 -6 1 -11 -4 -10 -10 2 -7 -3 -12 -10 -10
-6 1 -11 -4 -10 -10 2 -7 -3 -12 -9 -11 -7 2 -12 -3 -10 -10 1 -6 -4 -11 -10
-10 -7 2 -12 -3 -10 -10 1 -6 -4 -11 -10 -10 -7 2 -12 -3 -10 -10 1 -6 -4 -11
-10 -10 -7 2 -12 -3 -10 -10 1 -6 -4 -11 -10 -10 -7 2 -12 -3 -10 -10 1 -6 -4
-11 -10 -10 -7 2 -12 -3 -10 -10 1 -6 -4 -11 -10 -10 -7 2 -12 -3 -10 -10 1
-6 -4 -11 -10 -10 -7 2 -12 -3 -10 -10 1 -6 -4 -11 -10 -10 -7 2 -12 -3 -10
-10 1 -6 -4 -11 -10 -10 -7 2 -12 -3 -10 -10 1 -6 -4 -11 -10 -10 -7 2 -12 -3
-10 -10 1 -6 -4 -11 -10 -10 -7 2 -12 -3 -10 -10 1 -6 -4 -11 -10 -10 -7 2
-12 -3 -10 -10 1 -6 -4 -11 -10 -10 -7 2 -12 -3 -10 -10 1 -6 -4 -11 -10 -10
-7 2 -12 -3 -10 -10 1 -6 -4 -11 -10 -10 -7 2 -12 -3 -10 -10 1 -6 -4 -11 -10
-10 -7 2 -12 -3 -10 -10 1 -6 -4 -11 -10 -10 -7 2 -12 -3 -10 -10 1 -6 -4 -11
-10 -10 -7 2 -12 -3 -10 -10 1 -6 -4 -11 -10 -10 -7 2 -12 -3 -10 -10 1 -6 -4
-11 -10 -10 -7 2 -12 -3 -10 -10 1 -6 -4 -11 -10 -10 -7 2 -12 -3 -10 -10 1
-6 -4 -11 -10 -10 -7 2 -12 -3 -10 -10 1 -6 -4 -11 -10 -10 -7 2 -12 -3 -10
-10 1 -6 -4 -11 -10 -10 -7 2 -12 -3 -10 -10 1 -6 -4 -11 -10 -10 -7 2 -12 -3
-10 -10 1 -6 -4 -11 -10 -10 -7 2 -12 -3 -10 -10 1 -6 -4 -11 -10 -10 -7 2
-12 -3 -10 -10 1 -6 -4 -11 -10 -10 -7 2 -12 -3 -10 -10 1 -6 -4 -11 -10 -10
-7 2 -12 -3 -10 -10 1 -6 -4 -11 -10 -10 -7 2 -12 -3 -10 -10 1 -6 -4 -11 -10
-10 -7 2 -12 -3 -10 -10 1 -6 -4 -11 -10 -10 -7 2 -12 -3 -10 -10 1 -6 -4 -11
-10 -10 -7 2 -12 -3 -10 -10 1 -6 -4 -11 -10 -10 -7 2 -12 -3 -10 -10 1 -6 -4
-11 -10 -10 -7 2 -12 -3 -10 -10 1 -6 -4 -11 -10 -10 -7 2 -12 -3 -10 -10 1
-6 -4 -11 -10 -10 -7 2 -12 -3 -10 -10 1 -6 -4 -11 -10 -10 -7 2 -12 -3 -10
-10 1 -6 -4 -11 -10 -10 -7 2 -12 -3 -10 -10 1 -6 -4 -11 -10 -10 -7 2 -12 -3
-10 -10 1 -6 -4 -11 -10 -10 -7 2 -12 -3 -10 -10 1 -6 -4 -11 -10 -10 -7 2
-12 -3 -10 -10 1 -6 -4 -11 -10 -10 -7 2 -12 -3 -10 -10 1 -6 -4 -11 -10 -10
-7 2 -12 -3 -10 -10 1 -6 -4 -11 -10 -10 -7 2 -12 -3 -10 -10 1 -6 -4 -11 -10
-10 -7 2 -12 -3 -10 -10 1 -6 -4 -11 -10 -10 -7 2 -12 -3 -10 -10 1 -6 -4 -11
-10 -10 -7 2 -12 -3 -10 -10 1 -6 -4 -11 -10 -10 -7 2 -12 -3 -10 -10 1 -6 -4
-11 -10 -10 -7 2 -12 -3 -10 -10 1 -6 -4 -11 -10 -10 -7 2 -12 -3 -10 -10 1
-6 -4 -11 -10 -10 -7 2 -12 -3 -10 -10 1 -6 -4 -11 -10 -10 -7 2 -12 -3 -10
-10 1 -6 -4 -11 -10 -10 -7 2 -12 -3 -10 -10 1 -6 -4 -11 -10 -10 -7 2 -12 -3
-10 -10 1 -6 -4 -11 -10 -10 -7 2 -12 -3 -10 -10 1 -6 -4 -11 -10 -10 -7 2
-12 -3 -10 -10 1 -6 -4 -11 -10 -10 -7 2 -12 -3 -10 -10 1 -6 -4 -11 -10 -10
-7 2 -12 -3 -10 -10 1 -6 -4 -11 -10 -10 -7 2 -12 -3 -10 -10 1 -6 -4 -11 -10
-10 -7 2 -12 -3 -10 -10 1 -6 -4 -11 -10 -10 -7 2 -12 -3 -10 -10 1 -6 -4 -11
-10 -10 -7 2 -12 -3 -10 -10 1 -6 -4 -11 -10 -10 -7 2 -12 -3 -10 -10 1 -6 -4
-11 -10 -10 -7 2 -12 -3 -10 -10 1 -6 -4 -11 -10 -10 -7 2 -12 -3 -10 -10 1
-6 -4 -11 -10 -10 -7 2 -12 -3 -10 -10 1 -6 -4 -11 -10 -10 -7 2 -12 -3 -10
-10 1 -6 -4 -11 -10 -10 -7 2 -12 -3 -10 -10 1 -6 -4 -11 -10 -10 -7 2 -12 -3
-10 -10 1 -6 -4 -11 -10 -10 -7 2 -12 -3 -10 -10 1 -6 -4 -11 -10 -10 -7 2
-12 -3 -10 -10 1 -6 -4 -11 -10 -10 -7 2 -12 -3 -10 -10 1 -6 -4 -11 -10 -10
-7 2 -12 -3 -10 -10 1 -6 -4 -11 -10 -10 -7 2 -12 -3 -10 -10 1 -6 -4 -11 -10
-10 -7 2 -12 -3 -10 -10 1 -6 -3 -11 -9 -10 -7 1 -10 -10 -9 -28 2 -24 0 -27
-11 -18 -10 8 -12 6 -9 -11 3 -18 2 -20 -10 -10 -12 10 -13 8 -10 -10 3 -18 2
-20 -10 -10 -12 10 -13 8 -10 -10 3 -18 2 -20 -10 -10 -12 10 -13 8 -10 -10 3
-18 2 -20 -10 -10 -12 10 -13 8 -10 -10 3 -18 2 -20 -10 -10 -12 10 -13 8 -10
-10 3 -18 2 -20 -10 -10 -12 10 -13 8 -10 -10 3 -18 2 -20 -10 -10 -12 10 -13
8 -10 -10 3 -18 2 -20 -10 -10 -12 10 -13 8 -10 -10 3 -18 2 -20 -10 -10 -12
10 -13 8 -10 -10 3 -17 1 -19 -9 -11 -11 9 -13 6 -11 -18 1 -18 -2 -29 -9 -28
-6 1 -10 -4 -9 -10 2 -7 -3 -12 -10 -10 -6 1 -11 -4 -10 -10 2 -7 -3 -12 -10
-10 -6 1 -11 -4 -10 -10 2 -7 -3 -12 -10 -10 -6 1 -11 -4 -10 -10 2 -7 -3 -12
-10 -10 -6 1 -11 -4 -10 -10 2 -7 -3 -12 -10 -10 -6 1 -11 -4 -10 -10 2 -7 -3
-12 -10 -10 -6 1 -11 -4 -10 -10 2 -7 -3 -12 -10 -10 -6 1 -11 -4 -10 -10 2
-7 -3 -12 -10 -10 -6 1 -11 -4 -10 -10 2 -7 -3 -12 -10 -10 -6 1 -11 -4 -10
-10 2 -7 -3 -12 -10 -10 -6 1 -11 -4 -10 -10 2 -7 -3 -12 -10 -10 -6 1 -11 -4
-10 -10 2 -7 -3 -12 -10 -10 -6 1 -11 -4 -10 -10 2 -7 -3 -12 -10 -10 -6 1
-11 -4 -10 -10 2 -7 -3 -12 -10 -10 -6 1 -11 -4 -10 -10 2 -7 -3 -12 -10 -10
-6 1 -11 -4 -10 -10 2 -7 -3 -12 -10 -10 -6 1 -11 -4 -9 -11 1 -8 -2 -11 -9
-6 -7 4 57 74 166 184 109 110 173 180 166 184 -7 5 -10 2 -9 -6 2 -7 -3 -12
-9 -11 -7 2 -12 -3 -10 -10 1 -6 -4 -11 -10 -10 -7 2 -12 -3 -10 -10 1 -6 -4
-11 -10 -10 -7 2 -12 -3 -10 -10 1 -6 -4 -11 -10 -10 -7 2 -12 -3 -10 -10 1
-6 -4 -11 -10 -10 -7 2 -12 -3 -10 -10 1 -6 -4 -11 -10 -10 -7 2 -12 -3 -10
-10 1 -6 -4 -11 -10 -10 -7 2 -12 -3 -10 -10 1 -6 -4 -11 -10 -10 -7 2 -12 -3
-10 -10 1 -6 -4 -11 -10 -10 -7 2 -12 -3 -10 -10 1 -6 -4 -11 -10 -10 -7 2
-12 -3 -10 -10 1 -6 -4 -11 -10 -10 -7 2 -12 -3 -10 -10 1 -6 -4 -11 -10 -10
-7 2 -12 -3 -10 -10 1 -6 -4 -11 -10 -10 -7 2 -12 -3 -10 -10 1 -6 -4 -11 -10
-10 -7 2 -12 -3 -10 -10 1 -6 -4 -11 -10 -10 -7 2 -12 -3 -10 -10 1 -6 -4 -11
-10 -10 -7 2 -12 -3 -10 -10 1 -6 -4 -11 -11 -9 -8 1 -11 -2 -8 -7 4 -5 2 -13
-4 -16 -8 -5 -7 -11 1 -21 10 -12 10 -14 0 -12 -8 2 -15 -4 -16 -12 -54 -285
-76 -536 -76 -875 0 -450 50 -835 162 -1265 297 -1135 984 -2126 1949 -2811
682 -484 1511 -798 2330 -883 980 -102 1921 66 2785 497 1334 665 2306 1903
2635 3356 256 1132 114 2309 -403 3346 -475 953 -1274 1753 -2227 2228 -630
314 -1334 500 -1985 522 -82 3 -177 7 -210 8 -33 2 -143 0 -245 -4z m-735 -99
c4 -6 1 -9 -7 -8 -7 2 -12 -3 -10 -9 1 -7 -4 -12 -10 -10 -7 1 -12 -4 -10 -10
1 -7 -4 -12 -10 -10 -7 1 -12 -4 -10 -10 1 -7 -4 -12 -10 -10 -7 1 -12 -4 -10
-10 1 -7 -4 -12 -10 -10 -7 1 -12 -4 -10 -10 1 -7 -4 -12 -10 -10 -7 1 -12 -4
-10 -10 1 -7 -4 -12 -10 -10 -7 1 -12 -4 -10 -10 1 -7 -4 -12 -10 -10 -7 1
-12 -4 -10 -10 1 -7 -4 -12 -10 -10 -7 1 -12 -4 -10 -10 1 -7 -4 -12 -10 -10
-7 1 -12 -4 -11 -10 2 -7 -3 -12 -10 -10 -6 1 -11 -4 -10 -10 2 -7 -3 -12 -10
-10 -6 1 -11 -4 -10 -10 2 -7 -3 -12 -10 -10 -6 1 -11 -4 -10 -10 2 -7 -3 -12
-10 -10 -6 1 -11 -4 -10 -10 2 -7 -3 -12 -10 -10 -6 1 -11 -4 -9 -11 1 -6 -4
-11 -10 -10 -7 2 -12 -3 -10 -10 1 -6 -4 -11 -10 -10 -7 2 -12 -3 -10 -10 1
-6 -4 -11 -10 -10 -7 2 -12 -3 -10 -10 1 -6 -4 -11 -10 -10 -7 2 -12 -3 -10
-10 1 -6 -4 -11 -10 -10 -7 2 -12 -3 -10 -10 1 -6 -4 -11 -10 -10 -7 2 -12 -3
-10 -10 1 -6 -4 -11 -10 -10 -7 2 -12 -3 -10 -10 1 -6 -4 -11 -10 -10 -7 2
-12 -3 -10 -10 1 -6 -4 -11 -10 -10 -7 2 -12 -3 -10 -10 1 -6 -4 -11 -10 -10
-7 2 -12 -3 -10 -10 1 -6 -4 -11 -10 -10 -7 2 -12 -3 -10 -10 1 -6 -4 -11 -10
-10 -7 2 -12 -3 -10 -10 1 -6 -4 -11 -10 -10 -7 2 -12 -3 -10 -10 1 -6 -4 -11
-10 -10 -7 2 -12 -3 -11 -9 2 -7 -3 -12 -10 -10 -6 1 -11 -4 -10 -10 2 -7 -3
-12 -10 -10 -6 1 -11 -4 -10 -10 2 -7 -3 -12 -10 -10 -6 1 -11 -4 -10 -10 2
-7 -3 -12 -10 -10 -6 1 -11 -4 -10 -10 2 -7 -3 -12 -10 -10 -6 1 -11 -4 -10
-10 2 -7 -3 -12 -10 -10 -6 1 -11 -4 -10 -10 2 -7 -3 -12 -10 -10 -6 1 -11 -4
-10 -10 2 -7 -3 -12 -10 -10 -6 1 -11 -4 -10 -10 2 -7 -3 -12 -10 -10 -6 1
-11 -4 -10 -10 2 -7 -3 -12 -10 -10 -6 1 -11 -4 -10 -10 2 -7 -3 -12 -10 -10
-6 1 -11 -4 -10 -10 2 -7 -3 -12 -10 -10 -6 1 -11 -4 -10 -10 2 -7 -3 -12 -10
-10 -6 1 -11 -4 -10 -10 2 -7 -3 -12 -10 -10 -6 1 -11 -4 -10 -10 2 -7 -3 -12
-10 -10 -6 1 -11 -4 -10 -10 2 -7 -3 -12 -10 -10 -6 1 -11 -4 -10 -10 2 -7 -3
-12 -10 -10 -6 1 -11 -4 -10 -10 2 -7 -3 -12 -10 -10 -6 1 -11 -4 -10 -10 2
-7 -3 -12 -10 -10 -6 1 -11 -4 -10 -10 2 -7 -3 -12 -10 -10 -6 1 -11 -4 -10
-10 2 -7 -3 -12 -10 -10 -6 1 -11 -4 -10 -10 2 -7 -3 -12 -10 -10 -6 1 -11 -4
-10 -10 2 -7 -3 -12 -10 -10 -6 1 -11 -4 -10 -10 2 -7 -3 -12 -10 -10 -6 1
-11 -4 -10 -10 2 -7 -3 -12 -10 -10 -6 1 -11 -4 -10 -10 2 -7 -3 -12 -10 -10
-6 1 -11 -4 -10 -10 2 -7 -3 -12 -10 -10 -6 1 -11 -4 -10 -10 2 -7 -3 -12 -10
-10 -6 1 -11 -4 -10 -10 2 -7 -3 -12 -10 -10 -6 1 -11 -4 -9 -11 1 -6 -4 -11
-10 -10 -7 2 -12 -3 -10 -10 1 -6 -4 -11 -10 -10 -7 2 -12 -3 -10 -10 1 -6 -4
-11 -10 -10 -7 2 -12 -3 -10 -10 1 -6 -4 -11 -10 -10 -7 2 -12 -3 -10 -10 1
-6 -4 -11 -10 -10 -7 2 -12 -3 -10 -10 1 -6 -4 -11 -10 -10 -7 2 -12 -3 -10
-10 1 -6 -4 -11 -10 -10 -7 2 -12 -3 -10 -10 1 -6 -4 -11 -10 -10 -7 2 -12 -3
-10 -10 1 -6 -4 -11 -10 -10 -7 2 -12 -3 -10 -10 1 -8 -2 -11 -9 -6 -7 4 249
267 662 680 371 371 675 674 676 674 1 0 5 -5 8 -10z m1384 -1758 c3 -5 45
-13 94 -17 48 -4 87 -10 87 -14 0 -5 28 -11 62 -15 34 -3 64 -10 67 -15 3 -4
28 -11 56 -15 27 -3 54 -11 59 -16 6 -6 24 -10 41 -10 17 0 35 -4 40 -9 6 -5
44 -19 85 -31 41 -12 79 -26 85 -31 5 -5 15 -9 23 -9 13 0 89 -31 124 -50 10
-6 24 -10 32 -10 7 0 19 -7 26 -15 7 -8 19 -15 27 -15 21 0 195 -89 201 -102
2 -5 10 -8 17 -8 8 0 34 -13 58 -30 25 -16 50 -30 56 -30 6 0 11 -5 11 -10 0
-6 8 -14 18 -18 53 -22 292 -196 292 -212 0 -6 6 -10 14 -10 25 0 276 -243
384 -372 29 -35 66 -79 83 -98 28 -33 111 -150 134 -188 6 -9 22 -33 38 -53
15 -20 27 -42 27 -48 0 -6 4 -11 9 -11 5 0 14 -12 20 -27 6 -16 25 -50 41 -78
16 -27 34 -59 40 -70 5 -11 14 -27 19 -35 5 -8 12 -22 15 -30 3 -8 11 -22 17
-31 20 -27 3 -62 -39 -81 -21 -10 -42 -18 -46 -18 -13 0 -155 -71 -161 -81 -4
-5 -14 -9 -23 -9 -9 0 -69 -25 -132 -56 -63 -31 -156 -76 -205 -100 -50 -24
-94 -44 -99 -44 -9 0 -147 -65 -331 -156 -49 -25 -94 -44 -99 -44 -5 0 -59
-25 -120 -54 -61 -30 -154 -75 -206 -99 -52 -25 -142 -67 -200 -95 -58 -27
-116 -53 -130 -57 -14 -4 -33 -14 -42 -22 -25 -23 -51 -7 -77 47 -21 43 -77
120 -155 215 l-25 30 240 241 240 240 -54 50 c-73 66 -93 82 -163 129 -32 22
-61 43 -64 46 -3 3 -12 8 -20 12 -8 4 -22 11 -30 16 -16 11 -203 98 -235 111
-11 4 -38 14 -60 22 -22 9 -56 21 -75 28 -19 7 -58 15 -87 17 -29 3 -57 11
-64 19 -8 10 -35 14 -94 14 -56 0 -86 4 -93 13 -16 18 -275 18 -294 0 -7 -8
-42 -13 -94 -13 -60 0 -85 -4 -94 -15 -7 -9 -30 -15 -54 -15 -22 0 -50 -7 -60
-15 -11 -8 -34 -15 -52 -15 -18 0 -35 -4 -38 -9 -3 -5 -18 -12 -33 -15 -16 -4
-41 -13 -58 -20 -138 -63 -235 -113 -262 -132 -17 -13 -35 -24 -38 -24 -4 0
-12 -6 -19 -12 -8 -7 -24 -20 -36 -28 -13 -8 -38 -27 -55 -42 -18 -16 -35 -28
-39 -28 -7 0 -206 -200 -243 -245 -13 -15 -23 -30 -23 -35 0 -5 -8 -16 -17
-26 -29 -28 -120 -174 -159 -254 -38 -79 -43 -91 -66 -155 -45 -121 -54 -154
-71 -265 -7 -41 -16 -82 -22 -90 -12 -19 -13 -459 0 -479 4 -8 10 -37 12 -65
2 -28 8 -62 13 -76 6 -14 14 -45 19 -70 10 -51 28 -103 47 -142 8 -14 14 -36
14 -47 0 -12 4 -21 9 -21 5 0 12 -15 15 -34 4 -19 10 -36 14 -38 4 -2 17 -24
30 -50 13 -26 27 -50 33 -53 5 -4 9 -13 9 -22 0 -8 14 -32 30 -53 17 -21 30
-41 30 -44 0 -4 11 -19 25 -34 14 -15 25 -32 25 -39 0 -14 291 -313 304 -313
8 0 77 -51 104 -77 7 -7 20 -13 28 -13 8 0 14 -4 14 -10 0 -5 5 -10 10 -10 12
0 73 -41 78 -52 2 -5 12 -8 22 -8 9 0 23 -7 30 -15 7 -8 20 -15 30 -15 10 0
23 -7 30 -15 7 -8 24 -15 39 -15 14 0 35 -7 45 -15 11 -8 29 -15 41 -15 12 0
25 -4 31 -8 5 -4 34 -15 64 -25 30 -9 78 -23 105 -31 28 -9 92 -18 143 -22 51
-4 95 -11 98 -15 7 -12 281 -12 288 0 3 4 46 12 96 15 50 4 105 12 123 17 17
6 66 19 107 29 41 11 102 31 135 44 33 13 67 27 75 30 8 3 22 10 30 15 8 5 22
12 30 15 8 3 22 10 30 15 8 4 31 16 50 26 19 10 66 39 103 64 38 25 76 51 85
56 52 31 300 279 350 349 19 26 39 49 46 52 8 3 35 -10 62 -28 69 -46 203
-142 240 -173 18 -14 35 -25 39 -25 4 0 24 -14 45 -30 21 -17 42 -30 48 -30 5
0 15 -7 22 -15 7 -9 44 -37 82 -62 37 -25 68 -50 68 -54 0 -5 8 -9 18 -9 9 0
32 -14 51 -30 18 -17 40 -30 47 -30 8 0 14 -4 14 -8 0 -9 86 -72 99 -72 4 0
21 -13 37 -30 16 -16 34 -30 39 -30 6 -1 37 -21 70 -46 33 -24 81 -58 108 -75
35 -23 47 -37 47 -55 0 -13 -3 -24 -8 -24 -4 0 -21 -21 -39 -48 -17 -26 -51
-70 -77 -99 -25 -28 -46 -53 -46 -56 0 -14 -210 -231 -310 -320 -24 -21 -70
-59 -103 -85 -33 -26 -71 -57 -84 -69 -28 -25 -183 -130 -233 -157 -19 -10
-37 -21 -40 -25 -7 -9 -49 -31 -205 -111 -119 -61 -179 -87 -330 -149 -59 -24
-214 -71 -233 -71 -12 0 -22 -4 -22 -9 0 -5 -25 -12 -55 -16 -30 -3 -55 -10
-55 -14 0 -5 -30 -11 -67 -14 -37 -4 -71 -11 -77 -17 -5 -5 -42 -10 -80 -10
-42 0 -82 -6 -98 -14 -40 -21 -712 -23 -752 -2 -17 9 -60 14 -109 15 -44 0
-83 4 -86 9 -3 4 -35 13 -71 20 -127 24 -145 28 -167 40 -12 7 -34 12 -50 12
-15 0 -37 7 -47 15 -11 8 -34 15 -52 15 -18 0 -35 4 -39 9 -3 5 -20 13 -37 17
-18 3 -39 10 -48 15 -8 4 -33 15 -55 24 -22 9 -53 23 -68 31 -16 8 -34 14 -41
14 -17 0 -285 136 -306 155 -9 8 -24 15 -32 15 -9 0 -21 7 -28 15 -7 8 -17 15
-22 15 -6 0 -27 14 -48 30 -21 17 -42 30 -48 30 -6 0 -12 4 -14 8 -1 4 -21 19
-43 32 -22 14 -68 48 -102 77 -34 29 -68 53 -74 53 -18 0 -479 465 -479 483 0
9 -6 20 -13 24 -18 11 -77 89 -77 101 0 6 -3 12 -7 14 -11 4 -110 155 -164
248 -68 116 -184 357 -195 403 -3 15 -10 27 -15 27 -5 0 -9 13 -9 28 0 16 -7
37 -15 48 -8 10 -15 33 -15 50 0 17 -7 37 -15 44 -8 7 -15 26 -15 42 0 16 -7
36 -15 44 -9 9 -15 34 -15 58 0 24 -6 48 -13 54 -7 6 -14 33 -16 59 -1 26 -6
50 -11 53 -4 3 -11 42 -15 88 -4 45 -11 82 -15 82 -5 0 -11 53 -14 118 -4 64
-11 125 -16 134 -12 22 -13 425 -2 432 5 3 12 60 15 128 5 76 11 125 19 129 7
5 11 34 10 84 -1 59 1 77 13 81 11 5 15 22 15 60 0 39 4 56 15 60 11 4 15 21
15 55 0 35 4 51 15 55 10 4 15 21 15 54 0 30 6 52 15 60 8 7 15 23 15 36 0 13
5 24 10 24 6 0 10 13 10 28 0 16 7 37 15 48 8 10 15 28 15 40 0 11 7 29 15 40
8 10 15 29 15 40 0 12 7 24 15 28 8 3 15 17 15 31 0 14 4 25 9 25 5 0 12 14
16 30 4 17 11 30 16 30 5 0 9 8 9 19 0 10 7 24 15 31 8 7 15 18 15 26 0 7 6
19 13 26 6 7 23 36 36 63 13 28 34 64 47 82 13 17 24 36 24 41 0 5 11 21 24
35 14 15 27 36 31 47 3 11 11 20 16 20 5 0 9 7 9 15 0 8 4 15 9 15 10 0 34 38
47 73 3 9 13 17 20 17 8 0 14 7 14 15 0 8 4 15 9 15 5 0 12 9 16 20 3 11 24
38 46 59 21 22 39 45 39 51 0 5 7 10 15 10 8 0 15 5 15 11 0 6 18 27 40 46 22
20 40 42 40 49 0 11 88 94 100 94 3 0 38 31 78 70 116 111 352 284 477 350 11
6 34 19 50 30 28 19 35 22 68 35 6 3 19 9 27 14 45 28 247 121 261 121 9 0 22
7 29 15 7 8 20 15 30 15 10 0 31 7 46 15 16 8 39 15 51 15 12 0 25 5 28 10 3
6 14 10 23 10 9 0 30 7 46 15 15 8 43 15 61 15 18 0 38 7 45 15 8 9 30 15 60
15 30 0 52 6 60 15 9 10 32 15 75 15 35 0 65 4 67 9 2 6 39 13 83 16 44 4 89
11 100 16 32 14 120 17 454 14 190 -2 316 -7 320 -13z"/>
<path d="M3885 9860 c-4 -6 -11 -8 -16 -4 -5 3 -8 0 -7 -8 2 -7 -3 -12 -9 -10
-7 1 -12 -4 -10 -10 1 -7 -4 -12 -10 -10 -7 1 -12 -4 -10 -10 1 -7 -4 -12 -10
-10 -7 1 -12 -4 -10 -10 1 -7 -4 -12 -10 -10 -7 1 -12 -4 -10 -10 1 -7 -4 -12
-10 -10 -7 1 -12 -4 -10 -10 1 -7 -4 -12 -10 -10 -7 1 -12 -4 -10 -10 1 -7 -4
-12 -10 -10 -7 1 -12 -4 -10 -10 1 -7 -4 -12 -10 -10 -7 1 -12 -4 -10 -10 1
-7 -4 -12 -10 -10 -7 1 -12 -4 -10 -10 1 -7 -4 -12 -10 -11 -7 2 -12 -3 -10
-10 1 -6 -4 -11 -10 -10 -7 2 -12 -3 -10 -10 1 -6 -4 -11 -10 -10 -7 2 -12 -3
-10 -10 1 -6 -4 -11 -10 -10 -7 2 -12 -3 -10 -10 1 -6 -4 -11 -11 -9 -6 1 -11
-4 -10 -10 2 -7 -3 -12 -10 -10 -6 1 -11 -4 -10 -10 2 -7 -3 -12 -10 -10 -6 1
-11 -4 -10 -10 2 -7 -2 -12 -8 -11 -6 1 -11 -4 -11 -11 0 -7 6 -13 13 -13 7 0
12 5 11 11 -1 6 4 10 11 8 6 -1 11 4 10 10 -2 7 3 12 10 10 6 -1 11 4 10 10
-2 7 3 12 10 10 6 -1 11 4 10 10 -2 7 3 12 9 11 7 -2 12 3 10 10 -1 6 4 11 10
10 7 -2 12 3 10 10 -1 6 4 11 10 10 7 -2 12 3 10 10 -1 6 4 11 10 10 7 -2 12
3 10 10 -1 6 4 11 10 10 7 -2 12 3 10 10 -1 6 4 11 11 10 6 -2 11 3 10 10 -2
6 3 11 10 10 6 -2 11 3 10 10 -2 6 3 11 10 10 6 -2 11 3 10 10 -2 6 3 11 10
10 6 -2 11 3 10 10 -2 6 3 11 10 10 6 -2 11 3 10 10 -2 6 3 11 10 10 6 -2 11
3 10 10 -2 6 3 11 10 10 6 -2 11 3 10 10 -2 6 3 11 10 10 6 -2 11 3 10 10 -2
6 3 11 10 10 6 -2 11 3 10 10 -2 6 3 11 10 9 8 -1 11 2 7 8 -8 13 -12 13 -20
0z"/>
<path d="M2183 8146 c1 -6 -4 -10 -10 -8 -7 1 -12 -4 -10 -10 1 -7 -4 -12 -10
-10 -7 1 -12 -4 -10 -10 1 -7 -4 -12 -10 -10 -7 1 -12 -4 -10 -10 1 -7 -4 -12
-10 -10 -7 1 -12 -4 -10 -10 1 -7 -4 -12 -10 -10 -7 1 -12 -4 -10 -10 1 -7 -4
-12 -11 -10 -6 1 -11 -4 -10 -10 2 -7 -3 -12 -9 -10 -7 1 -12 -4 -10 -10 1 -7
-4 -12 -10 -10 -7 1 -12 -4 -10 -10 1 -7 -4 -12 -10 -10 -7 1 -12 -4 -10 -10
1 -7 -4 -12 -10 -10 -7 1 -12 -4 -10 -10 1 -7 -4 -12 -10 -11 -7 2 -12 -3 -10
-10 1 -6 -4 -11 -10 -10 -7 2 -12 -3 -10 -10 1 -6 -4 -11 -10 -10 -7 2 -12 -3
-10 -10 1 -6 -4 -11 -10 -10 -7 2 -12 -3 -10 -10 1 -6 -4 -11 -11 -9 -6 1 -11
-4 -10 -10 2 -7 -3 -12 -10 -10 -6 1 -11 -4 -10 -10 2 -7 -3 -12 -10 -10 -6 1
-11 -4 -10 -10 2 -7 -3 -12 -10 -10 -6 1 -11 -4 -10 -10 2 -7 -3 -12 -10 -10
-6 1 -11 -4 -10 -10 2 -7 -3 -12 -10 -10 -6 1 -11 -4 -10 -10 2 -7 -3 -12 -10
-10 -6 1 -11 -4 -10 -10 2 -7 -3 -12 -10 -10 -6 1 -11 -4 -10 -10 2 -7 -3 -12
-10 -10 -6 1 -11 -4 -10 -10 2 -7 -3 -12 -10 -10 -6 1 -11 -4 -10 -10 2 -7 -3
-12 -10 -10 -6 1 -11 -4 -10 -10 2 -7 -3 -12 -10 -10 -6 1 -11 -4 -10 -10 2
-7 -3 -12 -10 -10 -6 1 -11 -4 -10 -10 2 -7 -3 -12 -10 -10 -6 1 -11 -4 -10
-10 2 -7 -3 -12 -9 -11 -7 2 -12 -3 -10 -10 1 -6 -4 -11 -10 -10 -7 2 -12 -3
-10 -10 1 -6 -4 -11 -10 -10 -7 2 -12 -3 -10 -10 1 -6 -4 -11 -10 -10 -7 2
-12 -3 -10 -10 1 -6 -4 -11 -10 -10 -7 2 -12 -3 -10 -10 1 -6 -3 -11 -9 -10
-6 1 -11 -4 -11 -11 0 -7 6 -13 13 -13 7 0 12 5 11 11 -1 6 4 10 10 9 7 -2 12
3 10 10 -1 6 4 11 10 10 7 -2 12 3 10 10 -1 6 4 11 10 10 7 -2 12 3 10 10 -1
6 4 11 10 10 7 -2 12 3 10 10 -1 6 4 11 10 10 7 -2 12 3 10 10 -1 6 4 11 11 9
6 -1 11 4 10 10 -2 7 3 12 10 10 6 -1 11 4 10 10 -2 7 3 12 10 10 6 -1 11 4
10 10 -2 7 3 12 10 10 6 -1 11 4 10 10 -2 7 3 12 10 10 6 -1 11 4 10 10 -2 7
3 12 10 10 6 -1 11 4 10 10 -2 7 3 12 10 10 6 -1 11 4 10 10 -2 7 3 12 10 10
6 -1 11 4 10 10 -2 7 3 12 10 10 6 -1 11 4 10 10 -2 7 3 12 10 10 6 -1 11 4
10 10 -2 7 3 12 10 10 6 -1 11 4 10 10 -2 7 3 12 10 10 6 -1 11 4 10 10 -2 7
3 12 10 10 6 -1 11 4 10 10 -2 7 3 12 10 10 6 -1 11 4 10 10 -2 7 3 12 9 11 7
-2 12 3 10 10 -1 6 4 11 10 10 7 -2 12 3 10 10 -1 6 4 11 10 10 7 -2 12 3 10
10 -1 6 4 11 10 10 7 -2 12 3 10 10 -1 6 4 11 10 10 7 -2 12 3 10 10 -1 6 4
11 10 10 7 -2 12 3 10 10 -1 6 4 11 10 10 7 -2 12 3 10 10 -1 6 4 11 11 10 6
-2 11 3 10 10 -2 6 3 11 10 10 6 -2 11 3 10 10 -2 6 3 11 10 10 6 -2 11 3 10
10 -2 6 3 11 10 10 6 -2 11 3 10 10 -2 6 3 11 10 10 6 -2 11 3 10 10 -2 6 3
11 10 10 6 -2 11 3 10 10 -2 6 3 11 10 10 6 -2 11 3 10 10 -2 6 2 11 8 10 6
-1 11 4 11 11 0 7 -6 13 -13 13 -7 0 -12 -5 -11 -11z"/>
<path d="M163 6106 c1 -6 -4 -10 -10 -8 -7 1 -12 -4 -10 -10 1 -7 -3 -12 -9
-11 -6 1 -11 -4 -11 -11 0 -7 6 -13 13 -13 7 0 12 5 11 11 -1 6 4 10 11 9 6
-2 11 3 10 10 -2 6 2 11 8 10 6 -1 11 4 11 11 0 7 -6 13 -13 13 -7 0 -12 -5
-11 -11z"/>
</g>
</svg>
